<?xml version="1.0" encoding="UTF-8" standalone="no"?>
<svg
   viewBox="0 0 28 32"
   version="1.1"
   id="svg1"
   sodipodi:docname="bolt.svg"
   width="28"
   height="32"
   inkscape:version="1.3 (0e150ed6c4, 2023-07-21)"
   xmlns:inkscape="http://www.inkscape.org/namespaces/inkscape"
   xmlns:sodipodi="http://sodipodi.sourceforge.net/DTD/sodipodi-0.dtd"
   xmlns="http://www.w3.org/2000/svg"
   xmlns:svg="http://www.w3.org/2000/svg">
  <defs
     id="defs1" />
  <sodipodi:namedview
     id="namedview1"
     pagecolor="#ffffff"
     bordercolor="#000000"
     borderopacity="0.25"
     inkscape:showpageshadow="2"
     inkscape:pageopacity="0.0"
     inkscape:pagecheckerboard="0"
     inkscape:deskcolor="#d1d1d1"
     inkscape:zoom="16"
     inkscape:cx="10.71875"
     inkscape:cy="15.1875"
     inkscape:window-width="1878"
     inkscape:window-height="990"
     inkscape:window-x="0"
     inkscape:window-y="0"
     inkscape:window-maximized="1"
     inkscape:current-layer="svg1" />
  <path
     fill="#ffffff"
     d="m 21.837223,2.7879674 c 0.368737,-0.85622 0.09375,-1.85618505 -0.662477,-2.40616505 -0.756223,-0.549981 -1.787437,-0.499983 -2.493662,0.112496 L 2.6816511,14.493803 c -0.624978,0.549981 -0.84997,1.4312 -0.556231,2.206172 0.29374,0.774973 1.043713,1.299954 1.874934,1.299954 H 10.968857 L 6.1627771,29.212033 c -0.368736,0.85622 -0.09375,1.856184 0.662477,2.406165 0.756223,0.549981 1.7874366,0.499982 2.4936616,-0.112496 L 25.31835,17.506197 c 0.624977,-0.549981 0.849969,-1.4312 0.55623,-2.206172 -0.29374,-0.774973 -1.037463,-1.293705 -1.874934,-1.293705 h -6.968504 z"
     id="path1"
     style="stroke-width:0.0624978" />
</svg>
