<?xml version="1.0" encoding="UTF-8" standalone="no"?>
<svg
   version="1.0"
   width="256.000000pt"
   height="256.000000pt"
   viewBox="0 0 256.000000 256.000000"
   preserveAspectRatio="xMidYMid meet"
   id="svg549"
   sodipodi:docname="discord.svg"
   xml:space="preserve"
   inkscape:version="1.2.1 (9c6d41e410, 2022-07-14)"
   xmlns:inkscape="http://www.inkscape.org/namespaces/inkscape"
   xmlns:sodipodi="http://sodipodi.sourceforge.net/DTD/sodipodi-0.dtd"
   xmlns="http://www.w3.org/2000/svg"
   xmlns:svg="http://www.w3.org/2000/svg"><defs
     id="defs553" /><sodipodi:namedview
     id="namedview551"
     pagecolor="#ffffff"
     bordercolor="#000000"
     borderopacity="0.25"
     inkscape:showpageshadow="2"
     inkscape:pageopacity="0.0"
     inkscape:pagecheckerboard="0"
     inkscape:deskcolor="#d1d1d1"
     inkscape:document-units="pt"
     showgrid="false"
     inkscape:zoom="2.1767578"
     inkscape:cx="165.38358"
     inkscape:cy="170.89637"
     inkscape:window-width="1920"
     inkscape:window-height="1007"
     inkscape:window-x="0"
     inkscape:window-y="0"
     inkscape:window-maximized="1"
     inkscape:current-layer="g547" /><g
     transform="translate(0.000000,256.000000) scale(0.100000,-0.100000)"
     fill="#000000"
     stroke="none"
     id="g547"
     style="fill:#5662f6;fill-opacity:1"><rect
       style="fill:#ffffff;stroke-width:6.68723"
       id="rect1766"
       width="1657.2812"
       height="1285.1682"
       x="447.91388"
       y="-1932.9207"
       transform="scale(1,-1)" /><path
       d="M1140 2550 c-470 -58 -870 -360 -1041 -785 -117 -292 -126 -607 -25 -902 117 -342 389 -631 721 -764 292 -117 607 -126 902 -25 342 117 631 389 764 721 117 292 126 607 25 902 -147 431 -519 751 -974 837 -106 20 -277 27 -372 16z m-62 -686 l19 -36 183 0 183 0 20 37 c18 36 20 37 62 32 24 -4 95 -23 157 -43 137 -44 151 -57 230 -210 108 -209 151 -393 146 -619 l-3 -130 -103 -62 c-94 -56 -214 -111 -283 -128 -24 -6 -30 0 -68 59 -22 36 -41 68 -41 71 0 2 30 18 67 35 50 23 64 33 55 42 -9 9 -34 4 -104 -20 -140 -47 -199 -55 -360 -49 -143 5 -195 15 -320 63 -37 14 -50 16 -60 6 -9 -9 4 -19 55 -43 l67 -31 -25 -46 c-14 -26 -34 -58 -45 -72 l-19 -25 -58 20 c-74 25 -222 99 -295 149 l-58 38 0 132 c0 228 36 382 141 594 80 161 100 181 219 220 188 62 213 64 238 16z"
       id="path541"
       style="fill:#5662f6;fill-opacity:1" /><path
       d="M973 1389 c-67 -19 -113 -113 -93 -189 23 -86 98 -131 174 -105 68 24 97 67 98 146 0 104 -83 174 -179 148z"
       id="path543"
       style="fill:#5662f6;fill-opacity:1" /><path
       d="M1506 1385 c-69 -24 -96 -65 -96 -147 0 -94 53 -148 144 -148 94 0 159 108 122 204 -31 80 -97 116 -170 91z"
       id="path545"
       style="fill:#5662f6;fill-opacity:1" /></g></svg>
