<?xml version="1.0" encoding="UTF-8" standalone="no"?>
<svg
   version="1.0"
   width="121.000000pt"
   height="144.000000pt"
   viewBox="0 0 121.000000 144.000000"
   preserveAspectRatio="xMidYMid meet"
   id="svg2"
   sodipodi:docname="GeoGuessr_Icon.svg"
   inkscape:version="1.3 (0e150ed6c4, 2023-07-21)"
   xmlns:inkscape="http://www.inkscape.org/namespaces/inkscape"
   xmlns:sodipodi="http://sodipodi.sourceforge.net/DTD/sodipodi-0.dtd"
   xmlns="http://www.w3.org/2000/svg"
   xmlns:svg="http://www.w3.org/2000/svg">
  <defs
     id="defs2" />
  <sodipodi:namedview
     id="namedview2"
     pagecolor="#ffffff"
     bordercolor="#000000"
     borderopacity="0.25"
     inkscape:showpageshadow="2"
     inkscape:pageopacity="0.0"
     inkscape:pagecheckerboard="0"
     inkscape:deskcolor="#d1d1d1"
     inkscape:document-units="pt"
     inkscape:zoom="2.8854167"
     inkscape:cx="80.404332"
     inkscape:cy="94.960289"
     inkscape:window-width="1324"
     inkscape:window-height="678"
     inkscape:window-x="0"
     inkscape:window-y="0"
     inkscape:window-maximized="1"
     inkscape:current-layer="svg2" />
  <g
     transform="translate(0.000000,144.000000) scale(0.100000,-0.100000)"
     fill="#000000"
     stroke="none"
     id="g2"
     style="fill:#cc302e;fill-opacity:1">
    <path
       d="M462 1410 c-256 -67 -432 -275 -449 -530 -9 -140 38 -275 161 -459 105 -158 283 -358 348 -392 43 -22 115 -25 161 -6 72 30 334 341 414 492 77 144 103 226 103 335 0 156 -54 284 -170 400 -153 154 -364 213 -568 160z m230 -161 c59 -13 136 -49 186 -87 91 -69 159 -222 150 -336 -12 -144 -135 -348 -352 -581 l-66 -70 -88 91 c-167 172 -305 387 -332 520 -23 111 19 242 109 337 104 110 248 156 393 126z"
       id="path1"
       style="fill:#cc302e;fill-opacity:1" />
    <path
       d="M535 1027 c-20 -16 -28 -35 -32 -68 -4 -38 -1 -50 22 -77 65 -77 185 -35 185 66 0 35 -6 49 -29 73 -38 38 -106 41 -146 6z"
       id="path2"
       style="fill:#cc302e;fill-opacity:1" />
  </g>
  <path
     style="fill:#ffffff;fill-opacity:1;stroke-width:0.34657"
     d="M 73.097873,159.83504 C 63.028727,149.28233 62.441751,148.63847 57.713963,142.96029 42.886308,125.15194 31.367039,106.20843 26.917455,92.315229 25.184351,86.903858 24.658809,82.975739 24.886289,77.133467 25.185237,69.455744 26.529786,64.270305 30.148885,56.837545 40.127842,36.343162 60.956084,23.57742 82.830325,24.548804 c 8.385208,0.372367 14.363492,1.966264 22.949385,6.118636 6.39849,3.094487 11.28001,6.34054 14.79763,9.839942 8.92362,8.877396 15.44865,23.347004 16.35043,36.257961 1.2106,17.332325 -12.73537,43.589957 -39.207058,73.819497 -5.101853,5.8261 -16.134793,17.68471 -16.425313,17.65453 -0.108857,-0.0113 -3.797746,-3.79326 -8.197526,-8.40433 z M 84.521706,79.360861 c 2.724602,-0.709669 4.715576,-1.940819 6.765054,-4.183271 2.278101,-2.492607 3.212798,-4.958591 3.418602,-9.019214 0.201721,-3.980105 -0.432579,-6.341084 -2.358013,-8.776942 -3.026235,-3.828475 -6.728699,-5.56916 -11.845683,-5.56916 -7.465743,0 -12.393558,4.181294 -13.478736,11.436823 -0.499449,3.339338 -0.246488,6.400511 0.678779,8.214187 1.766071,3.461787 6.401838,7.197834 9.970865,8.035702 2.080424,0.488401 4.642075,0.436741 6.849132,-0.138125 z"
     id="path3"
     transform="scale(0.75)" />
</svg>
