<?xml version="1.0" encoding="UTF-8" standalone="no"?>
<svg
   viewBox="0 0 32 32"
   version="1.1"
   id="svg1"
   sodipodi:docname="leaf.svg"
   width="32"
   height="32"
   inkscape:version="1.3 (0e150ed6c4, 2023-07-21)"
   xmlns:inkscape="http://www.inkscape.org/namespaces/inkscape"
   xmlns:sodipodi="http://sodipodi.sourceforge.net/DTD/sodipodi-0.dtd"
   xmlns="http://www.w3.org/2000/svg"
   xmlns:svg="http://www.w3.org/2000/svg">
  <defs
     id="defs1" />
  <sodipodi:namedview
     id="namedview1"
     pagecolor="#ffffff"
     bordercolor="#000000"
     borderopacity="0.25"
     inkscape:showpageshadow="2"
     inkscape:pageopacity="0.0"
     inkscape:pagecheckerboard="0"
     inkscape:deskcolor="#d1d1d1"
     inkscape:zoom="2"
     inkscape:cx="111.75"
     inkscape:cy="75.5"
     inkscape:window-width="1878"
     inkscape:window-height="990"
     inkscape:window-x="0"
     inkscape:window-y="0"
     inkscape:window-maximized="1"
     inkscape:current-layer="svg1" />
  <path
     fill="#ffffff"
     d="m 17,6.0023555 c -4.9125,0 -9.0687495,3.21875 -10.4812495,7.6562505 2.1,-1.0625 4.4687495,-1.65625 6.9812495,-1.65625 H 19 c 0.55,0 1,0.45 1,1 0,0.55 -0.45,1 -1,1 h -1 -4.5 c 0,0 0,0 0,0 -1.0375,0 -2.04375,0.11875 -3.0125,0.3375 -1.6187495,0.36875 -3.1249995,1.025 -4.4624995,1.91875 0,0 0,0 0,0 -3.63125,2.41875 -6.025001,6.55 -6.025001,11.24375 v 1 c 0,0.83125 0.66875,1.5 1.5,1.5 0.831251,0 1.500001,-0.66875 1.500001,-1.5 v -1 c 0,-3.04375 1.29375,-5.78125 3.3625,-7.7 1.2375,4.71875 5.5312495,8.2 10.6374995,8.2 h 0.0625 C 25.31875,27.958606 32,19.821106 32,9.7898555 c 0,-2.6625 -0.46875,-5.19375 -1.318749,-7.475 -0.1625,-0.43125 -0.79375,-0.4125 -1.0125,-0.0063 -1.175,2.2 -3.5,3.69375 -6.168751,3.69375 z"
     id="path1"
     style="stroke-width:0.0625" />
</svg>
