<?xml version="1.0" encoding="UTF-8" standalone="no"?>
<svg
   viewBox="0 0 32 25.6"
   version="1.1"
   id="svg1"
   sodipodi:docname="scale-balanced.svg"
   width="32"
   height="25.6"
   inkscape:version="1.3 (0e150ed6c4, 2023-07-21)"
   xmlns:inkscape="http://www.inkscape.org/namespaces/inkscape"
   xmlns:sodipodi="http://sodipodi.sourceforge.net/DTD/sodipodi-0.dtd"
   xmlns="http://www.w3.org/2000/svg"
   xmlns:svg="http://www.w3.org/2000/svg">
  <defs
     id="defs1" />
  <sodipodi:namedview
     id="namedview1"
     pagecolor="#ffffff"
     bordercolor="#000000"
     borderopacity="0.25"
     inkscape:showpageshadow="2"
     inkscape:pageopacity="0.0"
     inkscape:pagecheckerboard="0"
     inkscape:deskcolor="#d1d1d1"
     inkscape:zoom="4"
     inkscape:cx="22.875"
     inkscape:cy="39.25"
     inkscape:window-width="1878"
     inkscape:window-height="990"
     inkscape:window-x="0"
     inkscape:window-y="0"
     inkscape:window-maximized="1"
     inkscape:current-layer="svg1" />
  <path
     fill="#ffffff"
     d="m 19.233461,1.5793162 h 6.411819 c 0.886635,0 1.602955,0.71632 1.602955,1.602955 0,0.886634 -0.71632,1.602954 -1.602955,1.602954 h -5.690489 c -0.26048,1.292383 -1.147115,2.35935 -2.324285,2.870292 V 22.417729 h 8.014774 c 0.886635,0 1.602955,0.71632 1.602955,1.602955 0,0.886634 -0.71632,1.602955 -1.602955,1.602955 H 16.027551 6.4098216 c -0.886634,0 -1.602955,-0.716321 -1.602955,-1.602955 0,-0.886635 0.716321,-1.602955 1.602955,-1.602955 H 14.424597 V 7.6555172 c -1.17717,-0.515952 -2.063805,-1.582918 -2.324285,-2.870292 H 6.4098216 c -0.886634,0 -1.602955,-0.71632 -1.602955,-1.602954 0,-0.886635 0.716321,-1.602955 1.602955,-1.602955 h 6.4118204 c 0.731348,-0.97179201 1.89349,-1.60295501 3.205909,-1.60295501 1.31242,0 2.474562,0.631163 3.20591,1.60295501 z m 2.785134,14.4265928 h 7.253371 L 25.64528,9.7844412 Z m 3.626685,4.808865 c -3.150808,0 -5.770637,-1.70314 -6.311634,-3.952286 -0.13024,-0.551015 0.05009,-1.117059 0.335618,-1.607964 l 4.768791,-8.1750688 c 0.250462,-0.430795 0.711311,-0.691275 1.207225,-0.691275 0.495915,0 0.956764,0.26549 1.207226,0.691275 l 4.76879,8.1750688 c 0.285527,0.490905 0.465859,1.056949 0.335619,1.607964 -0.540997,2.249146 -3.160826,3.952286 -6.311635,3.952286 z M 6.3497106,9.7844412 2.7230256,16.005909 h 7.25838 z M 0.04308562,16.862488 c -0.13024,-0.551015 0.05009,-1.117059 0.335619,-1.607964 L 5.1474946,7.0794552 c 0.250462,-0.430795 0.711312,-0.691275 1.207226,-0.691275 0.495914,0 0.956763,0.26549 1.207225,0.691275 l 4.7687914,8.1750688 c 0.285526,0.490905 0.465859,1.056949 0.335618,1.607964 -0.546006,2.249146 -3.1658354,3.952286 -6.3166444,3.952286 -3.150808,0 -5.76562798,-1.70314 -6.30662498,-3.952286 z"
     id="path1"
     style="stroke-width:0.0500923" />
</svg>
